<?xml version="1.0" encoding="utf-8"?>
<!-- Generator: Adobe Illustrator 26.5.0, SVG Export Plug-In . SVG Version: 6.00 Build 0)  -->
<svg version="1.1" id="Слой_1" xmlns="http://www.w3.org/2000/svg" xmlns:xlink="http://www.w3.org/1999/xlink" x="0px" y="0px"
	 viewBox="0 0 576 576" style="enable-background:new 0 0 576 576;" xml:space="preserve">
<style type="text/css">
	.st0{fill:#404A54;}
</style>
<g>
	<path class="st0" d="M325.2,271.6c4.2-1.3,8.5-2.5,13.8-4c-2.2,8.1-0.6,14,5.8,17.9c5.3,3.3,11,3.3,16.2-0.1c7.5-5,7.7-12,4.2-20.6
		c9.8,0.8,18.8,1.5,27.8,2.3c5.9,0.5,10-2.3,10.7-7.3c0.6-4.6-2.5-8.8-7.9-9.6c-26-3.9-51.6-3.3-76.6,5.2c-6.5,2.2-9.1,6.4-7.3,11.5
		C313.6,271.8,318.8,273.6,325.2,271.6z"/>
	<path class="st0" d="M207.7,265.8c2.6-0.3,5.1-0.8,7.6-1c5.9-0.4,11.9-0.6,18.6-0.9c-3.7,8.2-3.2,14.7,3.5,19.8
		c4.7,3.6,11.4,3.8,16.7,0.8c5.9-3.3,7.9-8.8,6.2-18.4c5.1,1.4,9.4,2.5,13.6,3.8c7.3,2.3,12.6,0.8,14.4-4.4c1.8-5.3-0.9-10-8.5-11.7
		c-13-2.9-26.2-5.8-39.4-6.8c-11.7-0.8-23.6,0.8-35.4,1.8c-5.7,0.5-9.2,5-8.5,9.6C197.2,263.8,201.5,266.5,207.7,265.8z"/>
	<path class="st0" d="M349.1,395c-10.8-0.2-21.6-0.2-32.4,0c-5.2,0.1-8.9,3.9-9,8.8c-0.2,11-0.2,22,0,33c0.1,5.9,3.8,9.2,9.7,9.3
		c5,0.1,10.1,0,15.1,0c0,0,0,0,0,0c5.2,0,10.4,0.1,15.7,0c6.2-0.2,10.1-3.5,10.3-9.5c0.4-10.6,0.4-21.3,0.1-31.9
		C358.4,399,354.5,395.1,349.1,395z M332.4,437.9c-9.6-0.3-17.3-8.4-16.9-18c0.3-9.6,8.6-17.4,17.9-17.1c9.5,0.3,17.2,8.6,16.9,18.1
		C349.9,430.7,342.1,438.2,332.4,437.9z"/>
	<path class="st0" d="M214.8,329.3c-10.6-0.2-21.3-0.3-31.9,0c-6.3,0.1-9.7,4.1-9.7,10.5c0,4.9,0,9.7,0,14.6c0,5-0.1,10.1,0,15.1
		c0.1,6.5,3.4,10.4,9.8,10.5c10.4,0.3,20.9,0.3,31.3,0.2c6-0.1,9.9-4.1,9.9-9.8c0.1-10.4,0.2-20.9,0.1-31.3
		C224.3,333.3,220.6,329.4,214.8,329.3z M198.5,372.5c-9,0.2-17.4-8.3-17.5-17.7c-0.1-9.3,8.1-17.5,17.5-17.5
		c10.2,0,17.4,7,17.5,17.1C216.1,364.6,208.6,372.3,198.5,372.5z"/>
	<path class="st0" d="M307.4,354c0,4.7,0,9.3,0,14c0,0.4,0,0.7,0,1.1c0.1,7,3.6,10.8,10.6,10.9c10.1,0.2,20.2,0.2,30.3,0.2
		c6.3,0,10.2-3.8,10.4-10c0.2-10.3,0.2-20.6,0-30.8c-0.1-6.1-3.8-9.9-9.8-10c-10.6-0.3-21.3-0.3-31.9-0.1c-6.2,0.1-9.3,3.8-9.4,10.1
		C307.3,344.3,307.4,349.2,307.4,354C307.4,354,307.4,354,307.4,354z M332.4,337.3c10.1,0,17.9,7.6,17.9,17.5
		c0,9.6-7.7,17.7-17,17.8c-9.7,0.1-18.1-8.4-17.9-18.3C315.4,345,323.1,337.3,332.4,337.3z"/>
	<path class="st0" d="M213.3,395c-10.1-0.1-20.2-0.1-30.2,0.1c-6.1,0.1-9.7,3.8-9.8,9.8c-0.1,5,0,10.1,0,15.1c0,0,0,0,0.1,0
		c0,4.7,0,9.3,0,14c0.1,8.2,3.8,12.1,11.9,12.2c9.3,0.1,18.7,0.1,28,0c7.3-0.1,10.9-3.8,11-11.1c0.1-9.5,0.2-19,0.2-28.6
		C224.4,398.7,221.1,395.1,213.3,395z M198.6,438.2c-9.3,0-17.2-7.7-17.3-17.1c-0.1-9.9,7.8-18.2,17.4-18.3
		c9.7-0.1,17.3,7.5,17.4,17.4C216.2,430.3,208.5,438.2,198.6,438.2z"/>
	<path class="st0" d="M251.2,446.3c9.7,0.1,19.4,0.1,29.1,0c7-0.1,10.8-3.6,11-10.6c0.2-10.2,0.2-20.5-0.1-30.8
		c-0.2-6.3-4.1-9.9-10.4-10c-4.8-0.1-9.7,0-14.5,0c0,0,0,0,0,0c-5.2,0-10.4-0.1-15.7,0c-6.6,0.1-10.4,3.8-10.4,10.5
		c-0.1,10.1,0,20.1,0.1,30.2C240.4,442.3,244.4,446.2,251.2,446.3z M265.4,402.6c9.5-0.1,17.7,8.2,17.7,18c0,9.7-8.2,18-17.8,17.9
		c-9-0.1-17.3-8.9-17.2-18.1C248.3,410.7,256,402.7,265.4,402.6z"/>
	<path class="st0" d="M213.6,460.8c-10.1-0.2-20.2-0.2-30.3,0c-6.6,0.1-10.1,4.1-10.1,10.8c0,4.7,0,9.3,0,14c0,0,0.1,0,0.1,0
		c0,4.9,0,9.7,0,14.6c0,0.4,0,0.7,0,1.1c0.3,6.6,3.5,10.1,10.1,10.2c10.1,0.2,20.2,0.3,30.3,0.1c7-0.1,10.5-3.8,10.6-11
		c0.1-9.7,0.2-19.4,0.1-29.1C224.3,464.3,221,460.9,213.6,460.8z M199,503.8c-9.5,0-17.5-7.9-17.6-17.4c-0.1-9.8,7.5-17.4,17.2-17.4
		c10,0,17.4,7.3,17.4,17.2C216.1,495.8,208.4,503.8,199,503.8z"/>
	<path class="st0" d="M281.9,460.8c-10.6-0.2-21.3-0.1-31.9,0.2c-6.2,0.2-9.7,3.8-9.8,9.9c-0.2,10.3-0.1,20.6,0.1,30.8
		c0.1,6,3.9,9.6,9.9,9.8c5.2,0.2,10.5,0,15.7,0c0,0,0-0.1,0-0.1c5,0,10.1,0.1,15.1,0c6.4-0.2,9.7-3.1,10-9.5
		c0.4-10.5,0.5-20.9,0.4-31.4C291.3,464.7,287.6,460.9,281.9,460.8z M265,503.7c-9.2-0.2-17.1-8.8-16.7-18.2
		c0.4-9.8,8.2-17.2,17.9-16.8c9.7,0.4,17,8.2,16.7,18C282.7,496.2,274.5,503.9,265,503.7z"/>
	<path class="st0" d="M240.2,354.1c0,5.4-0.1,10.8,0,16.2c0.1,5.6,3.8,9.6,9.4,9.7c10.6,0.2,21.3,0.2,31.9-0.1
		c5.5-0.1,9.3-3.8,9.4-9.1c0.2-11,0.2-22-0.1-33c-0.1-4.8-3.8-8.5-8.6-8.6c-11-0.2-22-0.2-33,0c-5.8,0.1-9,3.8-9.1,9.8
		C240.2,344.1,240.2,349.1,240.2,354.1C240.2,354.1,240.2,354.1,240.2,354.1z M265.6,337.2c9.5,0,17.4,7.8,17.5,17.3
		c0.1,9.8-7.8,18-17.4,18.1c-9.2,0.1-17.3-7.9-17.5-17.5C247.9,345.3,255.8,337.2,265.6,337.2z"/>
	<path class="st0" d="M415.6,329.1h-30.3c-5.6,0-10.2,4.6-10.2,10.2v30.3c0,5.6,4.6,10.2,10.2,10.2h30.3c5.6,0,10.2-4.6,10.2-10.2
		v-30.3C425.7,333.6,421.2,329.1,415.6,329.1z M412.9,359.7c1.6,1.6,1.6,4.1,0,5.7l-1.6,1.6c-1.6,1.6-4.1,1.6-5.7,0l-5.3-5.3
		l-5.3,5.3c-1.6,1.6-4.1,1.6-5.7,0l-1.6-1.6c-1.6-1.6-1.6-4.1,0-5.7l5.3-5.3l-5.3-5.3c-1.6-1.6-1.6-4.1,0-5.7l1.6-1.6
		c1.6-1.6,4.1-1.6,5.7,0l5.3,5.3l5.3-5.3c1.6-1.6,4.1-1.6,5.7,0l1.6,1.6c1.6,1.6,1.6,4.1,0,5.7l-5.3,5.3L412.9,359.7z"/>
	<path class="st0" d="M415.6,394.9h-30.3c-5.6,0-10.2,4.6-10.2,10.2v96.6c0,5.6,4.6,10.2,10.2,10.2h30.3c5.6,0,10.2-4.6,10.2-10.2
		v-96.6C425.7,399.5,421.2,394.9,415.6,394.9z M417,454.5c0,2.2-1.8,4-4,4h-7.5v7.5c0,2.2-1.8,4-4,4h-2.2c-2.2,0-4-1.8-4-4v-7.5
		h-7.5c-2.2,0-4-1.8-4-4v-2.2c0-2.2,1.8-4,4-4h7.5v-7.5c0-2.2,1.8-4,4-4h2.2c2.2,0,4,1.8,4,4v7.5h7.5c2.2,0,4,1.8,4,4V454.5z"/>
	<path class="st0" d="M347.8,461h-30.3c-5.6,0-10.2,4.6-10.2,10.2v30.3c0,5.6,4.6,10.2,10.2,10.2h30.3c5.6,0,10.2-4.6,10.2-10.2
		v-30.3C358,465.6,353.5,461,347.8,461z M332.7,493.1L332.7,493.1c-3.7,0-6.7-3-6.7-6.7c0-3.7,3-6.7,6.7-6.7h0c3.7,0,6.7,3,6.7,6.7
		C339.4,490,336.4,493.1,332.7,493.1z"/>
	<path class="st0" d="M557.8,322.6c-12.8-24.4-27.6-47.9-47.6-68.7c-2.5-2.6-5.1-5.2-7.8-7.7c1.5-1.9,1-1.2,2.4-3.1
		c5.9,3.7,11.8,7.4,17.5,11.3c10,6.7,21.7,6.6,28.6-0.7c7.3-7.7,5.5-17.4-4.4-24.5c-27.1-19.2-57.5-32.9-91.5-40.7
		c-1.5-0.3-3-0.6-4.4-1.1c-1.2-0.4-2.3-1-4.6-2.1c24.7,0.5,46.7,5,68.3,12.1c11.3,3.7,22.3-1.5,25.2-11.5
		c2.4-8.5-2.9-15.8-14.6-19.7c-28.2-9.3-57.3-14-87.6-13.4c-0.6,0-1.2,0-1.8,0c-1.2,0-1.7-1.6-0.6-2.3c3.1-1.9,6.2-3.3,9.4-4.6
		c7.7-3.1,15.7-5.6,23-9.3c8.8-4.4,11.3-13.1,6.8-20.5c-4.7-7.7-14.2-10.9-23.8-7.8c-6.3,2.1-12.5,4.4-18.6,6.8
		c-1.2,0.4-2.3,0.9-3.5,1.4c-1.4,0.6-2.4-1.5-1-2.2c9.8-5.5,20.4-9.6,32.1-12c9.5-2,15.1-9.7,13.7-17.8c-1.4-8.1-8.8-13.9-18.5-13.5
		c-5.6,0.2-11.2,1.4-16.5,2.9c-30.2,8.5-54.3,24.9-76.1,44.2c-2,1.7-3.8,3.6-5.7,5.4c-0.6-1.6-0.3-2.5,0.3-3.3
		c12.1-16.9,23.9-33.8,36.4-50.5c4.6-6.1,5.3-11.7,1.4-17.8c-7.4-11.3-24-11.5-33.2,0.3c-13.1,16.9-25.1,34.5-37.5,51.8
		c-0.4,0.6-0.8,1.2-1.2,1.8c-2.1-0.6-1.9-0.6-4-1.2c0-1.1,0-2.3-0.1-3.4c-0.9-17.3-1.7-34.7-2.9-52c-0.7-11-9.1-18-20-17.5
		c-11.4,0.6-18.2,7.9-17.7,18.9c1.2,26.3,2.4,52.6,3.5,78.9c0,0,0,0,0,0c0,1.2-1.5,1.6-2.2,0.7c-1.2-1.6-2-3.2-2.8-4.9
		c-13.1-25.2-26.1-50.5-39.6-75.6c-4.9-9.1-16.3-11.8-25.9-7.5c-9.5,4.3-12.4,13.6-7.5,22.7c11.5,21.3,22.7,42.8,34,64.2
		c0.6,1.1,0.8,2.4,1.4,4.4c-1.4-0.8-1.8-0.9-2.1-1.2c-1.1-1.1-2.2-2.3-3.3-3.5c-23.9-25.1-50.3-47.6-83.2-64
		c-9.8-4.9-21.4-2.4-26.7,5.6c-5.2,7.9-2.3,17.4,7.4,22.2c23.6,11.8,43.4,27.5,61.5,44.9c1.5,1.4,3,2.9,4.4,4.4c0.9,0.9,0,2.3-1.2,2
		c-1.3-0.3-2.4-0.8-3.5-1.2c-34.5-13.7-70.4-23.9-107.5-31c-9-1.7-17.6,1.9-21.4,8.6c-3.7,6.4-2.1,14.9,4.7,19.3
		c3.6,2.4,8.5,3.7,13,4.6c30.1,6.2,59.6,14.2,87.9,25c1.9,0.7,3.7,1.7,5.6,2.5c-19.1-1.8-37.9-4.1-56.8-5.1
		c-27.6-1.4-54.4,1.7-79.2,13.1c-10.5,4.8-14.2,14.5-9,22.8c5,8,16.4,10.7,26.6,6c22.5-10.3,46.7-9.9,72.2-9
		c-1.3,0.9-1.7,1.4-2.2,1.6c-42,12.1-74,36.5-104.5,62.7c-7.3,6.2-7.1,16.2-0.4,22.3c7.2,6.5,18.4,7,26.5,1.1c2.6-1.9,5-4.2,7.5-6.2
		c21.2-17.6,43.2-34.2,70.3-45.1c1-0.4,2-0.7,3-1c1.2-0.4,2.1,1.1,1.2,2c-1.1,1.1-2.2,2-3.4,2.9c-19.1,14.6-36.3,30.7-50.6,48.9
		c-5.6,7.2-3.8,16.2,3.9,21.6c7.3,5.2,17.8,4.7,25-1.2c2-1.7,3.5-3.8,5.3-5.7c9.6-10,19.2-20,28.7-30.1c1.7,0.7,2.2,0.9,3.3,1.4
		l-8.4,8.3c-9,9-13.8,20.1-13.5,31.3c0.3,11.5,5.9,22.6,15.8,31.4l5.8,5.2c0,55.1,0,110.3,0.1,165.4c0,16.2,11.1,27,27.2,27.1
		c88,0.1,176,0.2,264,0.1c3.8,0,7.9-0.7,11.4-2.2c11-4.9,16-13.8,16-25.9c0-52.9-0.1-105.9-0.1-158.8l5.9-5.2
		c9.9-8.8,15.5-19.9,15.8-31.4c0.3-11.2-4.5-22.4-13.5-31.3l-5-4.9c-0.3-8.1,1.3-10.1,0.9-17c-0.1-1.8,1.8-3,3.4-2.1
		c10.8,5.9,13.4,7.5,20.9,18c12.7,17.6,24.1,35.8,35.8,54c3.1,4.9,6.6,8.7,13.3,9.7c7.3,1.1,14,0,18.9-5.2
		C561.7,335.7,561.2,329.2,557.8,322.6z M141.1,312.3c0,5.2,0,10.4,0,15.5c-3-4.2-4.7-8.8-4.8-13.4c-0.1-5.1,1.6-10.1,5-14.8
		L141.1,312.3z M237.4,171c19.7-13.4,41.8-21.1,61.7-21.1c27.6,0.5,46,8.2,62.2,20.4c4.7,3.5,5.4,7.9,2.2,11.3
		c-3.6,3.7-8.7,3.8-13.7-0.1c-15.7-12.1-33.8-18.3-55-16.2c-16.9,1.6-31.7,7.6-45.1,16.4c-4.3,2.8-8.5,3.8-12.9,0.5
		C232.8,179.3,233,174,237.4,171z M172.4,265.7c0-21.5,17.4-38.9,38.9-38.9h176.3c21.5,0,38.9,17.4,38.9,38.9v0
		c0,9.8-3.6,18.7-9.6,25.6c0,0.1,0.1,0.2,0.1,0.3h-0.4c-7.1,8-17.5,13.1-29.1,13.1H211.3C189.8,304.7,172.4,287.2,172.4,265.7
		L172.4,265.7z M436.6,504.1c0,3.6-0.6,7.6-2.1,10.7c-2.4,5-7.3,6.3-12.8,6.3c-40.5-0.1-81-0.1-121.6-0.1c0,0,0,0,0-0.1
		c-40.3,0-80.7,0-121,0c-9.7,0-15.2-5.3-15.2-15.2c-0.1-57.2-0.2-114.3-0.2-171.5c0-10.1,5.7-15.6,16.3-15.6c16.3,0,32.6,0,48.9,0
		v0.1h78v0c3.3,0,6.5,0,9.8,0c33.6,0,67.2-0.1,100.8,0c15,0,19.3,4.6,19.3,19.4C436.7,393.5,436.7,448.8,436.6,504.1z M464.5,320.1
		c-0.1,4.7-1.8,9.2-4.9,13.5c0-6.3,0-12.6,0-18.9c0.1-0.1,0.1-0.3,0.1-0.4c0.4-2.5,0.7-4.7,1.1-7
		C463.4,311.3,464.7,315.7,464.5,320.1z"/>
</g>
</svg>
